<svg id="Layer_1" data-name="Layer 1" xmlns="http://www.w3.org/2000/svg" viewBox="0 0 123.25 122.88"><defs><style>.cls-1{fill-rule:evenodd;}</style></defs><title>dedicated-server</title><path class="cls-1" d="M15.54,112.2v-9.74H46.69a13.18,13.18,0,0,1,3.85-5.8,13.25,13.25,0,0,1,6-3.91V83.32H2.86A2.87,2.87,0,0,1,0,80.46V50.14a2.85,2.85,0,0,1,.84-2,2.81,2.81,0,0,1,1.5-.79H56.53V36H2.86A2.87,2.87,0,0,1,0,33.12V2.81A2.87,2.87,0,0,1,2.34,0H120.91a2.89,2.89,0,0,1,1.49.79,2.83,2.83,0,0,1,.85,2V33.12a2.83,2.83,0,0,1-.85,2,2.86,2.86,0,0,1-2,.84H66.27V47.35h54.64a2.89,2.89,0,0,1,2.34,2.8V80.46a2.79,2.79,0,0,1-.85,2,2.83,2.83,0,0,1-2,.85H66.27v9.43a13.3,13.3,0,0,1,6,3.91,13.26,13.26,0,0,1,3.85,5.8h34.35v9.74H76.22a13.37,13.37,0,0,1-4,6.18,15.35,15.35,0,0,1-21.72,0,13.21,13.21,0,0,1-4-6.18Zm85.54-55.78A8.59,8.59,0,1,1,92.49,65a8.6,8.6,0,0,1,8.59-8.59Zm-66-1h7.16V74H35.11V55.38Zm18.52,0h7.15V74H53.63V55.38Zm-37,0h7.15V74H16.59V55.38ZM101.08,9.09a8.59,8.59,0,1,1-8.59,8.58,8.59,8.59,0,0,1,8.59-8.58Zm-66-1h7.16V26.67H35.11V8.05Zm18.52,0h7.15V26.67H53.63V8.05Zm-37,0h7.15V26.67H16.59V8.05Zm49.68,94.6a6.88,6.88,0,1,0,2,4.87,6.86,6.86,0,0,0-2-4.87Z"/></svg>