<svg id="eUKhmkd0RPy1" xmlns="http://www.w3.org/2000/svg" xmlns:xlink="http://www.w3.org/1999/xlink" viewBox="0 0 1000 500" shape-rendering="geometricPrecision" text-rendering="geometricPrecision"><g transform="matrix(.1 0 0-.1 0 500)"><path d="M2075,3072c-44-16-119-49-167-74-86-44-115-49-61-10c16,11,25,24,20,28-11,11-118-67-143-104-28-41-50-158-33-178c17-21,51-9,179,64c197,112,234,132,259,132c22,0,23-3,18-39-10-75-122-268-280-480-63-86-69-97-64-132c8-64,38-114,67-114c21,0,41,24,126,153c198,299,411,552,464,552c19,0,21-4,15-27-10-45-90-179-181-308-165-232-159-222-159-285c1-63,24-110,54-110c12,0,51,41,107,113c191,242,478,537,501,514c3-4-26-44-64-89-162-194-213-285-221-397-8-116,30-171,117-171c57,0,132,42,244,135l75,63l7-36c17-89,62-132,139-132c71,1,126,29,206,105l67,66l12-48c14-54,36-83,62-83c11,0,48,38,92,93c75,93,177,198,177,183c0-5-15-34-34-65-47-78-66-127-66-172c0-46,21-69,64-69c36,0,78,28,166,109l55,51l7-39c16-91,60-131,144-131c65,0,124,31,205,108c58,54,70,61,75,46c39-128,153-174,271-110c29,16,78,50,109,77l58,49l18-60c42-135,135-135,271,3c52,53,67,74,67,97c0,38-8,37-56-1-100-80-184-83-184-8c0,22,15,46,58,92c118,128,145,217,63,217-65,0-182-119-219-224-11-30-30-58-52-76-50-39-135-80-166-80-26,0-26,1,12,28c71,51,122,118,135,177c10,44,9,65-5,125-9,40-16,85-16,101c0,32-24,44-62,30-30-11-44-29-53-63-4-15-74-94-168-191-172-174-233-217-308-217-40,0-55,13-69,58-8,30-7,31,56,61c156,73,234,149,234,227c0,80-66,95-186,40-76-35-197-157-215-216-7-23-26-52-42-66-45-38-115-76-127-69-30,18-2,75,92,188c50,60,56,82,37,136-8,22-17,31-33,31-39,0-142-79-252-192-58-60-108-107-111-105-11,12,12,52,73,125c64,76,78,114,48,126-35,13-66,5-103-29-38-35-121-152-121-171c0-37-165-144-222-144-45,0-78,28-78,65c0,20,14,31,89,70c140,72,211,146,211,219c0,97-147,82-284-29-55-45-121-133-131-175-4-18-34-44-103-89-158-105-199-106-189-2c12,110,132,312,292,491c47,52,88,105,91,116c12,46-48,121-89,110-40-10-233-177-385-334l-143-147l42,70c78,129,169,314,169,342c0,32-22,68-50,83-55,30-222-111-439-370-16-18-12-4,15,55c81,180,88,218,59,289-17,41-49,76-67,76-7,0-49-13-93-28Zm2505-612c0-71-21-119-61-140-19-11-26-8-55,24-18,20-41,36-51,36-12,0,11,28,67,85c58,58,87,81,92,72c4-6,8-41,8-77Z"/><path d="M6217,3071c-193-83-469-364-591-602-100-197-98-384,7-476c47-41,105-57,187-50c137,10,269,88,447,262l112,110l5-36c7-45,67-102,125-120c68-20,145,12,257,107l52,43l17-45c9-24,28-58,42-74c45-54,89-36,191,77l70,77-14-54c-28-108-15-150,45-150c46,0,93,29,173,108c39,38,59,51,62,41c2-8,10-36,16-62c15-57,49-87,97-87s80,19,143,86c51,54,59,59,100,60c25,0,59,8,75,17l31,15l17-48c22-62,62-110,91-110c30,0,80,38,153,118l61,67-14-55c-51-198,62-205,245-15c35,36,61,72,61,84c0,29-8,27-69-19-49-37-73-46-111-40-22,3-24,7-23,44c1,23,16,56,47,101c25,37,46,71,46,76c0,6-6,25-14,44-14,32-13,35,5,40c23,8,25,42,3,73-39,56-204-4-366-134-68-55-118-111-118-132c0-34-80-69-103-46-3,4,5,29,19,57c33,64,44,154,20,163-28,11-75-16-122-70-50-57-69-110-55-149c8-21,4-29-28-61-60-59-96-46-107,38l-7,46l99,103c235,242,358,414,378,528c9,50-1,69-34,69-52,0-209-138-325-285-107-136-205-328-205-401c0-28-69-89-118-105-32-11-37-10-54,11-23,28-18,45,38,134c49,77,50,84,29,126-14,27-14,29,5,35c26,8,27,56,2,78-51,46-209-14-364-139-71-58-110-102-127-146-18-47-145-127-201-128-24,0-24,1,10,27c128,99,162,186,125,323-8,30-15,67-15,82c0,60-80,42-109-24-21-47-265-313-366-399-143-122-267-189-362-197-111-9-161,32-170,139-11,113,51,258,186,439c125,168,340,355,401,348c36-4,39-53,6-118-28-56-120-181-159-218l-24-23l4,25c8,42-13,31-86-43-82-83-127-165-112-203c21-56,70-55,154,5c169,121,340,362,354,500c16,152-78,206-240,138Zm1617-189c-58-92-293-388-294-369-1,36,182,314,275,415c77,84,86,62,19-46Zm-636-359c-48-67-174-199-214-224-45-28-64-20-64,28c0,31,8,44,53,87c31,31,93,72,152,103c55,29,101,53,103,53s-12-21-30-47Zm1061,15c-76-106-185-219-240-248-31-17-49-5-49,32c0,65,56,118,215,200c49,26,91,48,93,48s-7-14-19-32ZM6630,2407c-8-40-31-72-63-89-16-8-25-3-52,26-18,20-41,36-51,36-13,0,10,28,71,90l90,91l7-58c3-32,3-75-2-96Z"/><path d="M3361,3014c-29-21-121-161-121-185c0-25,29-39,58-28c13,5,62,47,109,93c67,66,84,88,81,107-3,21-9,24-53,27-34,2-57-3-74-14Z"/><path d="M5047,2820c-35-41-44-86-21-111c32-35,79-21,113,35c38,61,24,106-35,106-23,0-39-8-57-30Z"/></g></svg>